<mxfile host="app.diagrams.net" modified="2023-04-14T08:52:08.345Z" agent="Mozilla/5.0 (Windows NT 10.0; Win64; x64) AppleWebKit/537.36 (KHTML, like Gecko) Chrome/112.0.0.0 Safari/537.36 Edg/112.0.1722.39" etag="zQpsS_ETyN9qBLHSknRO" version="21.1.2" type="github">
  <diagram id="C5RBs43oDa-KdzZeNtuy" name="Page-1">
    <mxGraphModel dx="1377" dy="796" grid="1" gridSize="10" guides="1" tooltips="1" connect="1" arrows="1" fold="1" page="1" pageScale="1" pageWidth="583" pageHeight="827" math="0" shadow="0">
      <root>
        <mxCell id="WIyWlLk6GJQsqaUBKTNV-0" />
        <mxCell id="WIyWlLk6GJQsqaUBKTNV-1" parent="WIyWlLk6GJQsqaUBKTNV-0" />
        <mxCell id="BsSsryiCk5DZRYz1GBhs-5" value="&lt;p style=&quot;margin:0px;margin-top:4px;margin-left:7px;text-align:left;&quot;&gt;&lt;b&gt;req&lt;/b&gt;&amp;nbsp;Site Web&lt;/p&gt;" style="html=1;shape=mxgraph.sysml.package;overflow=fill;labelX=110;strokeWidth=2;align=center;" parent="WIyWlLk6GJQsqaUBKTNV-1" vertex="1">
          <mxGeometry x="292" y="70" width="630" height="630" as="geometry" />
        </mxCell>
        <mxCell id="GaJeN53Z4AxEjJQTAGhH-0" value="&lt;p style=&quot;margin:0px;margin-top:4px;text-align:center;&quot;&gt;&amp;lt;&amp;lt;requirement&amp;gt;&amp;gt;&lt;br&gt;&lt;b&gt;Réseaux&lt;/b&gt;&lt;/p&gt;&lt;hr&gt;&lt;p&gt;&lt;/p&gt;&lt;p style=&quot;margin:0px;margin-left:8px;text-align:left;&quot;&gt;text=&quot;Besoin de réseaux local&quot;&lt;br&gt;Id=&quot;1.4.&lt;span style=&quot;background-color: initial;&quot;&gt;1&quot;&lt;/span&gt;&lt;/p&gt;" style="shape=rect;overflow=fill;html=1;whiteSpace=wrap;align=center;" parent="WIyWlLk6GJQsqaUBKTNV-1" vertex="1">
          <mxGeometry x="392" y="320" width="200" height="120" as="geometry" />
        </mxCell>
        <mxCell id="GaJeN53Z4AxEjJQTAGhH-7" value="&lt;p style=&quot;margin:0px;margin-top:4px;text-align:center;&quot;&gt;&amp;lt;&amp;lt;requirement&amp;gt;&amp;gt;&lt;br&gt;&lt;b&gt;Réseaux&lt;/b&gt;&lt;/p&gt;&lt;hr&gt;&lt;p&gt;&lt;/p&gt;&lt;p style=&quot;margin:0px;margin-left:8px;text-align:left;&quot;&gt;text=&quot;Afficher sur un page le prénom et le nom de l&#39;élève&lt;span style=&quot;background-color: initial;&quot;&gt;&quot;&lt;/span&gt;&lt;/p&gt;&lt;p style=&quot;margin:0px;margin-left:8px;text-align:left;&quot;&gt;Id=&quot;1.4&lt;span style=&quot;background-color: initial;&quot;&gt;&quot;&lt;/span&gt;&lt;/p&gt;" style="shape=rect;overflow=fill;html=1;whiteSpace=wrap;align=center;" parent="WIyWlLk6GJQsqaUBKTNV-1" vertex="1">
          <mxGeometry x="532" y="130" width="200" height="100" as="geometry" />
        </mxCell>
        <mxCell id="GaJeN53Z4AxEjJQTAGhH-8" value="&lt;p style=&quot;margin:0px;margin-top:4px;text-align:center;&quot;&gt;&amp;lt;&amp;lt;requirement&amp;gt;&amp;gt;&lt;br&gt;&lt;b&gt;Récupération&lt;/b&gt;&lt;/p&gt;&lt;hr&gt;&lt;p&gt;&lt;/p&gt;&lt;p style=&quot;margin:0px;margin-left:8px;text-align:left;&quot;&gt;text=&quot;Récupération nom et prénom de l&#39;élève entrant en sql&quot;&lt;br&gt;Id=&quot;1.4.1.2&lt;span style=&quot;background-color: initial;&quot;&gt;&quot;&lt;/span&gt;&lt;/p&gt;" style="shape=rect;overflow=fill;html=1;whiteSpace=wrap;align=center;" parent="WIyWlLk6GJQsqaUBKTNV-1" vertex="1">
          <mxGeometry x="382" y="490" width="200" height="130" as="geometry" />
        </mxCell>
        <mxCell id="GaJeN53Z4AxEjJQTAGhH-11" value="&amp;lt;&amp;lt;refine&amp;gt;&amp;gt;" style="endArrow=open;edgeStyle=none;endSize=12;dashed=1;html=1;rounded=0;entryX=0.46;entryY=1;entryDx=0;entryDy=0;exitX=0.5;exitY=0;exitDx=0;exitDy=0;entryPerimeter=0;" parent="WIyWlLk6GJQsqaUBKTNV-1" source="GaJeN53Z4AxEjJQTAGhH-8" target="GaJeN53Z4AxEjJQTAGhH-0" edge="1">
          <mxGeometry relative="1" as="geometry">
            <mxPoint x="582" y="430" as="sourcePoint" />
            <mxPoint x="702" y="430" as="targetPoint" />
          </mxGeometry>
        </mxCell>
        <mxCell id="GaJeN53Z4AxEjJQTAGhH-13" value="&amp;lt;&amp;lt;refine&amp;gt;&amp;gt;" style="endArrow=open;edgeStyle=none;endSize=12;dashed=1;html=1;rounded=0;entryX=0.25;entryY=1;entryDx=0;entryDy=0;exitX=0.5;exitY=0;exitDx=0;exitDy=0;" parent="WIyWlLk6GJQsqaUBKTNV-1" source="GaJeN53Z4AxEjJQTAGhH-0" target="GaJeN53Z4AxEjJQTAGhH-7" edge="1">
          <mxGeometry relative="1" as="geometry">
            <mxPoint x="472" y="495" as="sourcePoint" />
            <mxPoint x="382" y="440" as="targetPoint" />
          </mxGeometry>
        </mxCell>
        <mxCell id="BsSsryiCk5DZRYz1GBhs-0" value="&lt;p style=&quot;margin:0px;margin-top:4px;text-align:center;&quot;&gt;&amp;lt;&amp;lt;requirement&amp;gt;&amp;gt;&lt;br&gt;&lt;b&gt;Code&lt;/b&gt;&lt;/p&gt;&lt;hr&gt;&lt;p&gt;&lt;/p&gt;&lt;p style=&quot;margin:0px;margin-left:8px;text-align:left;&quot;&gt;text=&quot;Infrastructure du code du site en html , tournée sur apache2 et gestionde la base de donnée sur php en sql&quot;&lt;br&gt;Id=&quot;1.4.3.1&lt;span style=&quot;background-color: initial;&quot;&gt;&quot;&lt;/span&gt;&lt;/p&gt;" style="shape=rect;overflow=fill;html=1;whiteSpace=wrap;align=center;" parent="WIyWlLk6GJQsqaUBKTNV-1" vertex="1">
          <mxGeometry x="672" y="490" width="200" height="135" as="geometry" />
        </mxCell>
        <mxCell id="BsSsryiCk5DZRYz1GBhs-3" value="&amp;lt;&amp;lt;refine&amp;gt;&amp;gt;" style="endArrow=open;edgeStyle=none;endSize=12;dashed=1;html=1;rounded=0;entryX=0.75;entryY=1;entryDx=0;entryDy=0;exitX=0.5;exitY=0;exitDx=0;exitDy=0;" parent="WIyWlLk6GJQsqaUBKTNV-1" source="rFErmSGiUq5VpY5qz9YR-0" target="GaJeN53Z4AxEjJQTAGhH-7" edge="1">
          <mxGeometry relative="1" as="geometry">
            <mxPoint x="1032" y="260" as="sourcePoint" />
            <mxPoint x="1032" y="110" as="targetPoint" />
          </mxGeometry>
        </mxCell>
        <mxCell id="rFErmSGiUq5VpY5qz9YR-0" value="&lt;p style=&quot;margin:0px;margin-top:4px;text-align:center;&quot;&gt;&amp;lt;&amp;lt;requirement&amp;gt;&amp;gt;&lt;br&gt;&lt;b&gt;Composant&lt;/b&gt;&lt;/p&gt;&lt;hr&gt;&lt;p&gt;&lt;/p&gt;&lt;p style=&quot;margin:0px;margin-left:8px;text-align:left;&quot;&gt;text=&quot;Besoin d&#39;un microcontrolleur pour la base données et le site en prenant aussi les info reçue&quot;&lt;br&gt;Id=&quot;1.4.3&lt;span style=&quot;background-color: initial;&quot;&gt;&quot;&lt;/span&gt;&lt;/p&gt;" style="shape=rect;overflow=fill;html=1;whiteSpace=wrap;align=center;" parent="WIyWlLk6GJQsqaUBKTNV-1" vertex="1">
          <mxGeometry x="672" y="320" width="200" height="120" as="geometry" />
        </mxCell>
        <mxCell id="rFErmSGiUq5VpY5qz9YR-1" value="&amp;lt;&amp;lt;refine&amp;gt;&amp;gt;" style="endArrow=open;edgeStyle=none;endSize=12;dashed=1;html=1;rounded=0;entryX=0.5;entryY=1;entryDx=0;entryDy=0;exitX=0.5;exitY=0;exitDx=0;exitDy=0;" parent="WIyWlLk6GJQsqaUBKTNV-1" source="BsSsryiCk5DZRYz1GBhs-0" target="rFErmSGiUq5VpY5qz9YR-0" edge="1">
          <mxGeometry relative="1" as="geometry">
            <mxPoint x="1092" y="475" as="sourcePoint" />
            <mxPoint x="1002" y="420" as="targetPoint" />
          </mxGeometry>
        </mxCell>
      </root>
    </mxGraphModel>
  </diagram>
</mxfile>
